# xmcd
#
# Track frame offsets: 
#        225
#        15994
#        32765
#        52133
#        72577
#        88848
#        102765
#        116896
#        130723
#        145532
#        167640
#
# Disc length: 2404 seconds
#
# Revision: 0
# Processed by: cddbd v1.5.1PL2 Copyright (c) Steve Scherf et al.
# Submitted via: ExactAudioCopy v0.95b3
#
DISCID=9409610b
DTITLE=James Luther Dickinson - Jungle Jim And The Voodoo Tiger
DYEAR=2006
DGENRE=Blues
TTITLE0=Red Neck, Blue Collar
TTITLE1=Truck Drivin' Man
TTITLE2=Violin Bums
TTITLE3=Out Of The Blue
TTITLE4=Love Bone
TTITLE5=Hadacol Boogie
TTITLE6=Rooster Blues
TTITLE7=White Silver Sands
TTITLE8=Can't Beat The Kid (Part 2)
TTITLE9=Somewhere Down The Road
TTITLE10=Samba De Orfeo
EXTD=
EXTT0=
EXTT1=
EXTT2=
EXTT3=
EXTT4=
EXTT5=
EXTT6=
EXTT7=
EXTT8=
EXTT9=
EXTT10=
PLAYORDER=
